<svg xmlns="http://www.w3.org/2000/svg" viewBox="0 0 240 240" width="240" height="240">
<circle cx="97.0" cy="48.0" r="0.8" fill="#F6F7F3" fill-opacity="0.40"/>
<circle cx="182.4" cy="60.3" r="1.1" fill="#F6F7F3" fill-opacity="0.66"/>
<circle cx="129.3" cy="225.2" r="1.2" fill="#F6F7F3" fill-opacity="0.50"/>
<circle cx="147.2" cy="52.0" r="1.7" fill="#F6F7F3" fill-opacity="0.47"/>
<circle cx="93.1" cy="163.8" r="0.8" fill="#F6F7F3" fill-opacity="0.65"/>
<circle cx="204.0" cy="81.3" r="1.7" fill="#F6F7F3" fill-opacity="0.57"/>
<circle cx="185.9" cy="112.6" r="1.1" fill="#F6F7F3" fill-opacity="0.41"/>
<circle cx="1.8" cy="48.9" r="1.8" fill="#F6F7F3" fill-opacity="0.57"/>
<circle cx="110.9" cy="216.1" r="1.3" fill="#F6F7F3" fill-opacity="0.84"/>
<circle cx="85.8" cy="51.8" r="1.7" fill="#F6F7F3" fill-opacity="0.35"/>
<circle cx="190.0" cy="142.9" r="1.8" fill="#F6F7F3" fill-opacity="0.82"/>
<circle cx="158.5" cy="8.9" r="0.6" fill="#F6F7F3" fill-opacity="0.53"/>
<circle cx="196.7" cy="19.5" r="1.1" fill="#F6F7F3" fill-opacity="0.30"/>
<circle cx="74.4" cy="1.4" r="1.0" fill="#F6F7F3" fill-opacity="0.56"/>
<circle cx="48.2" cy="188.9" r="0.7" fill="#F6F7F3" fill-opacity="0.38"/>
<circle cx="61.8" cy="97.0" r="1.5" fill="#F6F7F3" fill-opacity="0.46"/>
<circle cx="166.8" cy="221.3" r="0.8" fill="#F6F7F3" fill-opacity="0.77"/>
<circle cx="143.9" cy="179.3" r="1.3" fill="#F6F7F3" fill-opacity="0.49"/>
<circle cx="23.2" cy="34.5" r="0.8" fill="#F6F7F3" fill-opacity="0.36"/>
<circle cx="34.9" cy="49.8" r="1.3" fill="#F6F7F3" fill-opacity="0.71"/>
<circle cx="191.5" cy="203.1" r="0.7" fill="#F6F7F3" fill-opacity="0.74"/>
<circle cx="44.6" cy="17.4" r="0.9" fill="#F6F7F3" fill-opacity="0.60"/>
<circle cx="11.4" cy="51.9" r="1.1" fill="#F6F7F3" fill-opacity="0.74"/>
<circle cx="95.9" cy="99.4" r="1.0" fill="#F6F7F3" fill-opacity="0.31"/>
<circle cx="211.1" cy="221.5" r="1.5" fill="#F6F7F3" fill-opacity="0.49"/>
<circle cx="106.6" cy="74.7" r="1.4" fill="#F6F7F3" fill-opacity="0.64"/>
<circle cx="74.6" cy="209.8" r="1.5" fill="#F6F7F3" fill-opacity="0.38"/>
<circle cx="194.2" cy="161.8" r="0.9" fill="#F6F7F3" fill-opacity="0.43"/>
<circle cx="180.4" cy="19.2" r="1.1" fill="#F6F7F3" fill-opacity="0.83"/>
<circle cx="61.5" cy="120.8" r="1.7" fill="#F6F7F3" fill-opacity="0.77"/>
<circle cx="189.2" cy="128.0" r="1.7" fill="#F6F7F3" fill-opacity="0.40"/>
<circle cx="211.6" cy="98.2" r="1.4" fill="#F6F7F3" fill-opacity="0.62"/>
<circle cx="67.7" cy="162.8" r="1.3" fill="#F6F7F3" fill-opacity="0.84"/>
<circle cx="160.0" cy="105.6" r="1.1" fill="#F6F7F3" fill-opacity="0.78"/>
<circle cx="82.9" cy="160.1" r="1.4" fill="#F6F7F3" fill-opacity="0.83"/>
<circle cx="46.4" cy="159.6" r="0.8" fill="#F6F7F3" fill-opacity="0.63"/>
<circle cx="157.7" cy="178.3" r="1.6" fill="#F6F7F3" fill-opacity="0.39"/>
<circle cx="206.5" cy="82.9" r="1.1" fill="#F6F7F3" fill-opacity="0.32"/>
<circle cx="127.6" cy="0.3" r="1.0" fill="#F6F7F3" fill-opacity="0.65"/>
<circle cx="179.4" cy="40.2" r="1.5" fill="#F6F7F3" fill-opacity="0.52"/>
<circle cx="49.3" cy="179.7" r="1.5" fill="#F6F7F3" fill-opacity="0.53"/>
<circle cx="127.4" cy="148.8" r="1.4" fill="#F6F7F3" fill-opacity="0.71"/>
<circle cx="184.5" cy="48.1" r="0.6" fill="#F6F7F3" fill-opacity="0.31"/>
<circle cx="73.8" cy="139.3" r="1.8" fill="#F6F7F3" fill-opacity="0.50"/>
<circle cx="88.6" cy="133.7" r="1.7" fill="#F6F7F3" fill-opacity="0.60"/>
<circle cx="70.8" cy="181.6" r="1.8" fill="#F6F7F3" fill-opacity="0.73"/><path d="M60 175 L61.4 178.6 L65 180 L61.4 181.4 L60 185 L58.6 181.4 L55 180 L58.6 178.6 Z" fill="#C8F03C" stroke="#C8F03C" stroke-width="0" stroke-linejoin="round"/><path d="M190 46 L191.12 48.88 L194 50 L191.12 51.12 L190 54 L188.88 51.12 L186 50 L188.88 48.88 Z" fill="#C8F03C" stroke="#C8F03C" stroke-width="0" stroke-linejoin="round"/>
</svg>
